<svg width="28" height="28" viewBox="0 0 28 28" fill="none" xmlns="http://www.w3.org/2000/svg">
<path fill-rule="evenodd" clip-rule="evenodd" d="M14 28C21.732 28 28 21.732 28 14C28 6.26801 21.732 0 14 0C6.26801 0 0 6.26801 0 14C0 21.732 6.26801 28 14 28ZM4.48741 8.67811C4.48741 7.69533 5.28476 6.89798 6.26755 6.89798H21.6954C22.6781 6.89798 23.4755 7.69533 23.4755 8.67811C23.4755 9.23812 23.2122 9.76474 22.7634 10.1022L14.6935 16.1547C14.2707 16.4699 13.6922 16.4699 13.2694 16.1547L5.19947 10.1022C4.75072 9.76474 4.48741 9.23812 4.48741 8.67811ZM4.48741 18.7655V11.0516L12.5573 17.1041C13.4029 17.7382 14.56 17.7382 15.4056 17.1041L23.4755 11.0516V18.7655C23.4755 20.0747 22.4111 21.139 21.102 21.139H6.86092C5.55178 21.139 4.48741 20.0747 4.48741 18.7655Z" fill="#FFFAFF"/>
</svg>
