<svg width="28" height="28" viewBox="0 0 28 28" fill="none" xmlns="http://www.w3.org/2000/svg">
<path fill-rule="evenodd" clip-rule="evenodd" d="M14 0C6.26801 0 0 6.26801 0 14C0 21.732 6.26801 28 14 28C21.732 28 28 21.732 28 14C28 6.26801 21.732 0 14 0ZM8.91077 4.64443C9.62363 4.44968 10.3696 4.81346 10.6525 5.49693V5.5006L12.1223 9.02816C12.3722 9.62711 12.1995 10.3179 11.6961 10.7295L9.88452 12.2103C11.1081 14.7972 13.2026 16.8917 15.7895 18.1153L17.274 16.3038C17.6819 15.8003 18.3764 15.6276 18.9753 15.8775L22.5029 17.3473C23.1864 17.6303 23.5501 18.3762 23.3554 19.0891L22.4735 22.3227C22.2971 22.962 21.7165 23.4066 21.0551 23.4066C11.9643 23.4066 4.59318 16.0355 4.59318 6.9447C4.59318 6.28328 5.0378 5.7027 5.67717 5.52632L8.91077 4.64443Z" fill="#FFFAFF"/>
</svg>
