<svg width="28" height="28" viewBox="0 0 28 28" fill="none" xmlns="http://www.w3.org/2000/svg">
<path d="M9.36532 21.9823C9.36532 22.0952 9.23548 22.1855 9.07177 22.1855C8.88548 22.2024 8.75564 22.1121 8.75564 21.9823C8.75564 21.8694 8.88548 21.779 9.04919 21.779C9.21855 21.7621 9.36532 21.8524 9.36532 21.9823ZM7.60968 21.7282C7.57016 21.8411 7.68306 21.971 7.85242 22.0048C7.99919 22.0613 8.16855 22.0048 8.20242 21.8919C8.23629 21.779 8.12903 21.6492 7.95968 21.5984C7.8129 21.5589 7.64919 21.6153 7.60968 21.7282ZM10.1048 21.6323C9.94113 21.6718 9.82823 21.779 9.84516 21.9089C9.8621 22.0218 10.0089 22.0952 10.1782 22.0556C10.3419 22.0161 10.4548 21.9089 10.4379 21.796C10.421 21.6887 10.2685 21.6153 10.1048 21.6323ZM13.8194 0C5.98952 0 0 5.94436 0 13.7742C0 20.0347 3.94032 25.3919 9.56855 27.2774C10.2911 27.4073 10.5452 26.9613 10.5452 26.5944C10.5452 26.2444 10.5282 24.3137 10.5282 23.1282C10.5282 23.1282 6.57661 23.975 5.74677 21.446C5.74677 21.446 5.10323 19.8032 4.17742 19.3798C4.17742 19.3798 2.88468 18.4935 4.26774 18.5105C4.26774 18.5105 5.67339 18.6234 6.44677 19.9669C7.68306 22.146 9.75484 21.5194 10.5621 21.1468C10.6919 20.2435 11.0589 19.6169 11.4653 19.2444C8.30968 18.8944 5.12581 18.4371 5.12581 13.0065C5.12581 11.454 5.55484 10.675 6.45806 9.68145C6.31129 9.31452 5.83145 7.80161 6.60484 5.84839C7.78468 5.48145 10.5 7.37258 10.5 7.37258C11.629 7.05645 12.8427 6.89274 14.0452 6.89274C15.2476 6.89274 16.4613 7.05645 17.5903 7.37258C17.5903 7.37258 20.3056 5.47581 21.4855 5.84839C22.2589 7.80726 21.779 9.31452 21.6323 9.68145C22.5355 10.6806 23.0887 11.4597 23.0887 13.0065C23.0887 18.454 19.7637 18.8887 16.6081 19.2444C17.1274 19.6903 17.5677 20.5371 17.5677 21.8637C17.5677 23.7661 17.5508 26.1202 17.5508 26.5831C17.5508 26.95 17.8105 27.396 18.5274 27.2661C24.1726 25.3919 28 20.0347 28 13.7742C28 5.94436 21.6492 0 13.8194 0ZM5.4871 19.4702C5.41371 19.5266 5.43064 19.6565 5.52661 19.7637C5.61694 19.854 5.74677 19.8935 5.82016 19.8202C5.89355 19.7637 5.87661 19.6339 5.78064 19.5266C5.69032 19.4363 5.56048 19.3968 5.4871 19.4702ZM4.87742 19.0129C4.8379 19.0863 4.89435 19.1766 5.00726 19.2331C5.09758 19.2895 5.21048 19.2726 5.25 19.1935C5.28952 19.1202 5.23306 19.0298 5.12016 18.9734C5.00726 18.9395 4.91694 18.9564 4.87742 19.0129ZM6.70645 21.0226C6.61613 21.096 6.65 21.2653 6.77984 21.3726C6.90968 21.5024 7.07339 21.5194 7.14677 21.429C7.22016 21.3556 7.18629 21.1863 7.07339 21.079C6.94919 20.9492 6.77984 20.9323 6.70645 21.0226ZM6.0629 20.1927C5.97258 20.2492 5.97258 20.396 6.0629 20.5258C6.15323 20.6556 6.30564 20.7121 6.37903 20.6556C6.46935 20.5823 6.46935 20.4355 6.37903 20.3056C6.3 20.1758 6.15323 20.1194 6.0629 20.1927Z" fill="#FFFAFF"/>
</svg>
